<?xml version="1.0" encoding="UTF-8" standalone="no"?><svg xmlns="http://www.w3.org/2000/svg" xmlns:xlink="http://www.w3.org/1999/xlink" contentScriptType="application/ecmascript" contentStyleType="text/css" height="340px" preserveAspectRatio="none" style="width:764px;height:340px;" version="1.1" viewBox="0 0 764 340" width="764px" zoomAndPan="magnify"><defs><filter height="300%" id="f14hjtkixyyxq8" width="300%" x="-1" y="-1"><feGaussianBlur result="blurOut" stdDeviation="2.0"/><feColorMatrix in="blurOut" result="blurOut2" type="matrix" values="0 0 0 0 0 0 0 0 0 0 0 0 0 0 0 0 0 0 .4 0"/><feOffset dx="4.0" dy="4.0" in="blurOut2" result="blurOut3"/><feBlend in="SourceGraphic" in2="blurOut3" mode="normal"/></filter></defs><g><!--cluster 业务后端--><polygon fill="#FFFFFF" filter="url(#f14hjtkixyyxq8)" points="504,161,566,161,573,183.2969,742,183.2969,742,328,504,328,504,161" style="stroke: #000000; stroke-width: 1.5;"/><line style="stroke: #000000; stroke-width: 1.5;" x1="504" x2="573" y1="183.2969" y2="183.2969"/><text fill="#000000" font-family="sans-serif" font-size="14" font-weight="bold" lengthAdjust="spacingAndGlyphs" textLength="56" x="508" y="175.9951">业务后端</text><!--cluster 公共类库--><polygon fill="#FFFFFF" filter="url(#f14hjtkixyyxq8)" points="14,16,76,16,83,38.2969,493,38.2969,493,240,14,240,14,16" style="stroke: #000000; stroke-width: 1.5;"/><line style="stroke: #000000; stroke-width: 1.5;" x1="14" x2="83" y1="38.2969" y2="38.2969"/><text fill="#000000" font-family="sans-serif" font-size="14" font-weight="bold" lengthAdjust="spacingAndGlyphs" textLength="56" x="18" y="30.9951">公共类库</text><!--cluster Cache--><polygon fill="#FFFFFF" filter="url(#f14hjtkixyyxq8)" points="377,43,432,43,439,65.2969,485,65.2969,485,232,377,232,377,43" style="stroke: #000000; stroke-width: 1.5;"/><line style="stroke: #000000; stroke-width: 1.5;" x1="377" x2="439" y1="65.2969" y2="65.2969"/><text fill="#000000" font-family="sans-serif" font-size="14" font-weight="bold" lengthAdjust="spacingAndGlyphs" textLength="49" x="381" y="57.9951">Cache</text><!--cluster Data--><polygon fill="#FFFFFF" filter="url(#f14hjtkixyyxq8)" points="22,43,63,43,70,65.2969,358,65.2969,358,232,22,232,22,43" style="stroke: #000000; stroke-width: 1.5;"/><line style="stroke: #000000; stroke-width: 1.5;" x1="22" x2="70" y1="65.2969" y2="65.2969"/><text fill="#000000" font-family="sans-serif" font-size="14" font-weight="bold" lengthAdjust="spacingAndGlyphs" textLength="35" x="26" y="57.9951">Data</text><!--entity 产品服务--><rect fill="#FEFECE" filter="url(#f14hjtkixyyxq8)" height="36.2969" style="stroke: #A80036; stroke-width: 1.5;" width="76" x="547" y="188"/><rect fill="#FEFECE" height="5" style="stroke: #A80036; stroke-width: 1.5;" width="10" x="542" y="193"/><rect fill="#FEFECE" height="5" style="stroke: #A80036; stroke-width: 1.5;" width="10" x="542" y="214.2969"/><text fill="#000000" font-family="sans-serif" font-size="14" lengthAdjust="spacingAndGlyphs" textLength="56" x="557" y="210.9951">产品服务</text><!--entity 用户服务--><rect fill="#FEFECE" filter="url(#f14hjtkixyyxq8)" height="36.2969" style="stroke: #A80036; stroke-width: 1.5;" width="76" x="658" y="188"/><rect fill="#FEFECE" height="5" style="stroke: #A80036; stroke-width: 1.5;" width="10" x="653" y="193"/><rect fill="#FEFECE" height="5" style="stroke: #A80036; stroke-width: 1.5;" width="10" x="653" y="214.2969"/><text fill="#000000" font-family="sans-serif" font-size="14" lengthAdjust="spacingAndGlyphs" textLength="56" x="668" y="210.9951">用户服务</text><!--entity 其它服务--><rect fill="#FEFECE" filter="url(#f14hjtkixyyxq8)" height="36.2969" style="stroke: #A80036; stroke-width: 1.5;" width="76" x="547" y="284"/><rect fill="#FEFECE" height="5" style="stroke: #A80036; stroke-width: 1.5;" width="10" x="542" y="289"/><rect fill="#FEFECE" height="5" style="stroke: #A80036; stroke-width: 1.5;" width="10" x="542" y="310.2969"/><text fill="#000000" font-family="sans-serif" font-size="14" lengthAdjust="spacingAndGlyphs" textLength="56" x="557" y="306.9951">其它服务</text><!--entity ICache--><ellipse cx="438" cy="99" fill="#FEFECE" filter="url(#f14hjtkixyyxq8)" rx="8" ry="8" style="stroke: #A80036; stroke-width: 2.0;"/><text fill="#000000" font-family="sans-serif" font-size="14" lengthAdjust="spacingAndGlyphs" textLength="47" x="414.5" y="128.9951">ICache</text><!--entity CacheImpl--><rect fill="#FEFECE" filter="url(#f14hjtkixyyxq8)" height="36.2969" style="stroke: #A80036; stroke-width: 1.5;" width="92" x="385" y="188"/><rect fill="#FEFECE" height="5" style="stroke: #A80036; stroke-width: 1.5;" width="10" x="380" y="193"/><rect fill="#FEFECE" height="5" style="stroke: #A80036; stroke-width: 1.5;" width="10" x="380" y="214.2969"/><text fill="#000000" font-family="sans-serif" font-size="14" lengthAdjust="spacingAndGlyphs" textLength="72" x="395" y="210.9951">CacheImpl</text><!--entity IRepository--><ellipse cx="251" cy="99" fill="#FEFECE" filter="url(#f14hjtkixyyxq8)" rx="8" ry="8" style="stroke: #A80036; stroke-width: 2.0;"/><text fill="#000000" font-family="sans-serif" font-size="14" lengthAdjust="spacingAndGlyphs" textLength="77" x="212.5" y="128.9951">IRepository</text><!--entity Cassandra--><rect fill="#FEFECE" filter="url(#f14hjtkixyyxq8)" height="36.2969" style="stroke: #A80036; stroke-width: 1.5;" width="93" x="151.5" y="188"/><rect fill="#FEFECE" height="5" style="stroke: #A80036; stroke-width: 1.5;" width="10" x="146.5" y="193"/><rect fill="#FEFECE" height="5" style="stroke: #A80036; stroke-width: 1.5;" width="10" x="146.5" y="214.2969"/><text fill="#000000" font-family="sans-serif" font-size="14" lengthAdjust="spacingAndGlyphs" textLength="73" x="161.5" y="210.9951">Cassandra</text><!--entity EFCore--><rect fill="#FEFECE" filter="url(#f14hjtkixyyxq8)" height="36.2969" style="stroke: #A80036; stroke-width: 1.5;" width="70" x="280" y="188"/><rect fill="#FEFECE" height="5" style="stroke: #A80036; stroke-width: 1.5;" width="10" x="275" y="193"/><rect fill="#FEFECE" height="5" style="stroke: #A80036; stroke-width: 1.5;" width="10" x="275" y="214.2969"/><text fill="#000000" font-family="sans-serif" font-size="14" lengthAdjust="spacingAndGlyphs" textLength="50" x="290" y="210.9951">EFCore</text><!--entity Mongodb--><rect fill="#FEFECE" filter="url(#f14hjtkixyyxq8)" height="36.2969" style="stroke: #A80036; stroke-width: 1.5;" width="86" x="30" y="188"/><rect fill="#FEFECE" height="5" style="stroke: #A80036; stroke-width: 1.5;" width="10" x="25" y="193"/><rect fill="#FEFECE" height="5" style="stroke: #A80036; stroke-width: 1.5;" width="10" x="25" y="214.2969"/><text fill="#000000" font-family="sans-serif" font-size="14" lengthAdjust="spacingAndGlyphs" textLength="66" x="40" y="210.9951">Mongodb</text><!--reverse link ICache to CacheImpl--><path d="M437.0448,113.6005 C435.7846,132.8644 433.5662,166.7734 432.1959,187.72 " fill="none" id="ICache&lt;-CacheImpl" style="stroke: #A80036; stroke-width: 1.0;"/><polygon fill="#A80036" points="437.4032,108.1228,432.8239,116.8423,437.0766,113.1121,440.8068,117.3648,437.4032,108.1228" style="stroke: #A80036; stroke-width: 1.0;"/><!--reverse link IRepository to Cassandra--><path d="M244.255,112.6173 C234.8071,131.6913 217.6089,166.4122 207.0546,187.72 " fill="none" id="IRepository&lt;-Cassandra" style="stroke: #A80036; stroke-width: 1.0;"/><polygon fill="#A80036" points="246.4812,108.1228,238.9021,114.4123,244.2619,112.6033,246.0709,117.9631,246.4812,108.1228" style="stroke: #A80036; stroke-width: 1.0;"/><!--reverse link IRepository to EFCore--><path d="M259.1449,112.6173 C270.5537,131.6913 291.3213,166.4122 304.0662,187.72 " fill="none" id="IRepository&lt;-EFCore" style="stroke: #A80036; stroke-width: 1.0;"/><polygon fill="#A80036" points="256.4566,108.1228,257.6436,117.8999,259.0232,112.4138,264.5092,113.7933,256.4566,108.1228" style="stroke: #A80036; stroke-width: 1.0;"/><!--reverse link IRepository to Mongodb--><path d="M237.3033,105.4355 C215.0736,116.0604 170.0012,138.3568 134,161 C120.9663,169.1976 107.1047,179.3016 95.8944,187.8571 " fill="none" id="IRepository&lt;-Mongodb" style="stroke: #A80036; stroke-width: 1.0;"/><polygon fill="#A80036" points="241.9412,103.23,232.0956,103.4828,237.4258,105.3773,235.5312,110.7075,241.9412,103.23" style="stroke: #A80036; stroke-width: 1.0;"/><!--reverse link ICache to 业务后端--><path d="M451.0639,111.2241 C463.1482,123.064 481.0026,141.9729 493,161 C495.6234,165.1606 498.0334,169.7457 500.192,174.3496 C501.2713,176.6515 502.2877,178.958 503.2365,181.2185 C503.4737,181.7837 503.7067,182.3459 503.9354,182.9045 " fill="none" id="ICache&lt;-业务后端" style="stroke: #A80036; stroke-width: 1.0;"/><polygon fill="#A80036" points="447.2037,107.4899,450.8908,116.6225,450.7972,110.9665,456.4533,110.8729,447.2037,107.4899" style="stroke: #A80036; stroke-width: 1.0;"/><!--reverse link IRepository to 业务后端--><path d="M265.4195,102.5115 C316.858,115.0609 488.5314,157.151 493,161 C496.7267,164.21 499.7401,168.2753 502.172,172.6437 C502.7799,173.7358 503.3516,174.8468 503.8889,175.9681 C503.9225,176.0382 503.956,176.1083 503.9893,176.1785 " fill="none" id="IRepository&lt;-业务后端" style="stroke: #A80036; stroke-width: 1.0;"/><polygon fill="#A80036" points="260.2895,101.2606,268.0858,107.2787,265.1472,102.445,269.9809,99.5064,260.2895,101.2606" style="stroke: #A80036; stroke-width: 1.0;"/><!--link 产品服务 to 用户服务--><!--link 产品服务 to 其它服务--><!--
@startuml


package "业务后端" {
       [产品服务]
       [用户服务]
       [其它服务]
    }

package "公共类库" {
    top to bottom direction
    folder "Cache" {
       () ICache <- - [CacheImpl]
    }
    folder "Data" {
        () IRepository <- - [Cassandra]
        () IRepository <- - [EFCore]
        () IRepository <- - [Mongodb]
        [Cassandra]
        [Cassandra]
    }

}


    
    ICache <- - 业务后端
    IRepository <- - 业务后端
@enduml

PlantUML version 1.2019.09(Tue Aug 27 00:19:51 CST 2019)
(GPL source distribution)
Java Runtime: OpenJDK Runtime Environment
JVM: OpenJDK 64-Bit Server VM
Java Version: 11.0.4+11-post-Ubuntu-1ubuntu218.04.3
Operating System: Linux
OS Version: 5.0.0-27-generic
Default Encoding: UTF-8
Language: en
Country: US
--></g></svg>